<svg xmlns="http://www.w3.org/2000/svg" width="14" height="16" fill="none" viewBox="0 0 14 16"><g clip-path="url(#clip0_409_2162)"><path fill="#070C47" fill-rule="evenodd" d="M0 14.1419C0 14.5489 0.33 14.8789 0.737 14.8789H3.684C4.091 14.8789 4.421 14.5489 4.421 14.1419V12.6139C4.421 12.2069 4.751 11.8769 5.158 11.8769H5.581C5.988 11.8769 6.318 11.5469 6.318 11.1399V9.29791C6.318 9.20112 6.29894 9.10529 6.2619 9.01587C6.22486 8.92645 6.17057 8.8452 6.10214 8.77677C6.0337 8.70833 5.95245 8.65404 5.86304 8.61701C5.77362 8.57997 5.67778 8.56091 5.581 8.56091H3.739C3.54354 8.56091 3.35608 8.63855 3.21786 8.77677C3.07965 8.91498 3.002 9.10244 3.002 9.29791V9.72091C3.002 10.1279 2.672 10.4579 2.265 10.4579H0.737C0.541535 10.4579 0.354077 10.5356 0.215862 10.6738C0.077648 10.812 0 10.9994 0 11.1949L0 14.1419ZM4.421 3.51191C4.421 3.91891 4.751 4.24891 5.158 4.24891H5.581C5.988 4.24891 6.318 4.57891 6.318 4.98591V6.45991C6.318 6.86691 5.988 7.19691 5.581 7.19691H4.107C3.91154 7.19691 3.72408 7.11926 3.58586 6.98104C3.44765 6.84283 3.37 6.65537 3.37 6.45991V6.03691C3.37 5.84161 3.29249 5.65431 3.15449 5.51612C3.01649 5.37794 2.82929 5.30017 2.634 5.29991H0.737C0.541535 5.29991 0.354077 5.22226 0.215862 5.08404C0.077648 4.94583 0 4.75837 0 4.56291L0 1.61591C0 1.20891 0.33 0.878906 0.737 0.878906H3.684C4.091 0.878906 4.421 1.20891 4.421 1.61591V3.51191ZM10.63 6.03691C10.63 5.62991 10.96 5.29991 11.366 5.29991H13.263C13.67 5.29991 14 4.96991 14 4.56291V1.61591C14 1.42044 13.9224 1.23298 13.7841 1.09477C13.6459 0.956554 13.4585 0.878906 13.263 0.878906H10.316C10.2192 0.878906 10.1234 0.897969 10.034 0.935007C9.94455 0.972045 9.8633 1.02633 9.79486 1.09477C9.72643 1.16321 9.67214 1.24445 9.6351 1.33387C9.59806 1.42329 9.579 1.51912 9.579 1.61591V3.51191C9.579 3.91891 9.249 4.24891 8.842 4.24891H8.42C8.22454 4.24891 8.03708 4.32655 7.89886 4.46477C7.76065 4.60298 7.683 4.79044 7.683 4.98591V6.45991C7.683 6.86691 8.013 7.19691 8.42 7.19691H9.894C10.301 7.19691 10.631 6.86691 10.631 6.45991L10.63 6.03691ZM14 14.1419C14 14.5489 13.67 14.8789 13.263 14.8789H10.316C10.2192 14.8789 10.1234 14.8598 10.034 14.8228C9.94455 14.7858 9.8633 14.7315 9.79486 14.663C9.72643 14.5946 9.67214 14.5134 9.6351 14.4239C9.59806 14.3345 9.579 14.2387 9.579 14.1419V12.2449C9.57874 12.0496 9.50097 11.8624 9.36278 11.7244C9.2246 11.5864 9.03729 11.5089 8.842 11.5089H8.419C8.22354 11.5089 8.03608 11.4313 7.89786 11.293C7.75965 11.1548 7.682 10.9674 7.682 10.7719V9.29791C7.682 8.89091 8.012 8.56091 8.419 8.56091H9.893C10.3 8.56091 10.63 8.89091 10.63 9.29791V9.72091C10.63 10.1279 10.96 10.4579 11.366 10.4579H13.263C13.67 10.4579 14 10.7879 14 11.1949V14.1419Z" clip-rule="evenodd"/></g><defs><clipPath id="clip0_409_2162"><rect width="14" height="15" fill="#fff" transform="translate(0 0.5)"/></clipPath></defs></svg>