<svg xmlns="http://www.w3.org/2000/svg" width="19" height="13" fill="none" viewBox="0 0 19 13"><path fill="#27272A" d="M18.1303 1.60133C17.4794 1.86671 16.7922 2.03257 16.069 2.13209C16.7922 1.73402 17.3709 1.10375 17.624 0.340788C16.9369 0.705683 16.1775 0.971061 15.3457 1.13692C14.6947 0.506649 13.7544 0.108582 12.7418 0.108582C10.789 0.108582 9.19775 1.56816 9.19775 3.35947C9.19775 3.62484 9.23392 3.85705 9.30625 4.08926C6.37694 3.95657 3.73695 2.66285 1.9649 0.672511C1.67559 1.17009 1.49477 1.70085 1.49477 2.29795C1.49477 3.42581 2.10956 4.42098 3.086 5.01808C2.50737 4.98491 1.9649 4.85222 1.45861 4.62001V4.65318C1.45861 6.24545 2.68819 7.57235 4.31558 7.8709C4.02627 7.93724 3.70079 7.97041 3.37531 7.97041C3.15832 7.97041 2.90517 7.93724 2.68819 7.90407C3.15832 9.19779 4.46024 10.1598 6.0153 10.1598C4.78572 11.0223 3.26682 11.553 1.60326 11.553C1.31395 11.553 1.02463 11.553 0.771484 11.5198C2.36271 12.4487 4.20709 12.9794 6.23229 12.9794C12.778 12.9794 16.3583 8.00359 16.3583 3.69119C16.3583 3.5585 16.3583 3.39264 16.3583 3.25995C17.0454 2.82871 17.6602 2.26478 18.1303 1.60133Z"/></svg>