<svg width="22" height="21" viewBox="0 0 22 21" fill="none" xmlns="http://www.w3.org/2000/svg">
<path d="M11.4764 2.62984C14.2863 2.62984 14.619 2.6395 15.7291 2.68593C16.3964 2.69342 17.0575 2.80583 17.6835 3.01827C18.1374 3.17885 18.5497 3.42485 18.8937 3.74041C19.2377 4.05598 19.5059 4.43414 19.681 4.85053C19.9126 5.42471 20.0351 6.03107 20.0433 6.64325C20.0934 7.66143 20.1044 7.96665 20.1044 10.544C20.1044 13.1214 20.0939 13.4266 20.0433 14.4448C20.0351 15.057 19.9126 15.6634 19.681 16.2375C19.5059 16.6539 19.2377 17.0321 18.8937 17.3477C18.5497 17.6632 18.1374 17.9092 17.6835 18.0698C17.0575 18.2822 16.3964 18.3947 15.7291 18.4021C14.6195 18.4481 14.2868 18.4582 11.4764 18.4582C8.66608 18.4582 8.33333 18.4486 7.22382 18.4021C6.55642 18.3947 5.89537 18.2822 5.2694 18.0698C4.81545 17.9092 4.40319 17.6632 4.05916 17.3477C3.71513 17.0321 3.44695 16.6539 3.27188 16.2375C3.04028 15.6634 2.91773 15.057 2.90956 14.4448C2.85945 13.4266 2.84842 13.1214 2.84842 10.544C2.84842 7.96665 2.85895 7.66143 2.90956 6.64325C2.91773 6.03107 3.04028 5.42471 3.27188 4.85053C3.44695 4.43414 3.71513 4.05598 4.05916 3.74041C4.40319 3.42485 4.81545 3.17885 5.2694 3.01827C5.89537 2.80583 6.55642 2.69342 7.22382 2.68593C8.33383 2.63996 8.66658 2.62984 11.4764 2.62984ZM11.4764 0.890442C8.61997 0.890442 8.26016 0.901474 7.13762 0.948361C6.26417 0.964297 5.39999 1.11599 4.58184 1.397C3.88 1.63956 3.24432 2.01966 2.71913 2.51079C2.18322 2.9927 1.76848 3.57613 1.50388 4.22031C1.19753 4.97077 1.03215 5.76346 1.01478 6.56465C0.964664 7.59339 0.952637 7.92344 0.952637 10.5436C0.952637 13.1637 0.964664 13.4938 1.01578 14.5234C1.03315 15.3246 1.19853 16.1173 1.50489 16.8678C1.76919 17.5119 2.18358 18.0953 2.71913 18.5773C3.24461 19.0685 3.88065 19.4486 4.58285 19.6911C5.40099 19.9721 6.26517 20.1238 7.13863 20.1397C8.26116 20.1857 8.61947 20.1976 11.4774 20.1976C14.3354 20.1976 14.6937 20.1866 15.8162 20.1397C16.6897 20.1238 17.5539 19.9721 18.372 19.6911C19.0709 19.4426 19.7055 19.0631 20.2354 18.5767C20.7652 18.0904 21.1785 17.508 21.449 16.8668C21.7553 16.1164 21.9207 15.3237 21.9381 14.5225C21.9882 13.4938 22.0002 13.1637 22.0002 10.5436C22.0002 7.92344 21.9882 7.59339 21.9371 6.56373C21.9197 5.76254 21.7543 4.96986 21.448 4.21939C21.1837 3.57529 20.7693 2.99187 20.2337 2.50987C19.7083 2.01863 19.0722 1.63852 18.37 1.39608C17.5519 1.11508 16.6877 0.963377 15.8142 0.947441C14.6927 0.901474 14.3329 0.890442 11.4764 0.890442Z" fill="#27272A"/>
<path d="M11.4745 5.58575C10.4057 5.58575 9.36083 5.87648 8.47211 6.42118C7.58339 6.96587 6.89072 7.74007 6.48169 8.64586C6.07265 9.55166 5.96563 10.5484 6.17416 11.51C6.38268 12.4715 6.89738 13.3548 7.65317 14.0481C8.40897 14.7413 9.37191 15.2135 10.4202 15.4047C11.4685 15.596 12.5551 15.4978 13.5426 15.1226C14.5301 14.7475 15.3742 14.1121 15.968 13.2969C16.5618 12.4817 16.8788 11.5233 16.8788 10.5429C16.8788 9.22816 16.3094 7.9673 15.2959 7.03766C14.2824 6.10802 12.9078 5.58575 11.4745 5.58575ZM11.4745 13.7606C10.7807 13.7606 10.1025 13.5719 9.52563 13.2183C8.94876 12.8647 8.49914 12.3622 8.23363 11.7742C7.96812 11.1863 7.89865 10.5393 8.03401 9.91512C8.16936 9.29095 8.50346 8.71761 8.99405 8.2676C9.48465 7.8176 10.1097 7.51114 10.7902 7.38698C11.4706 7.26283 12.176 7.32655 12.817 7.57009C13.458 7.81363 14.0058 8.22605 14.3913 8.7552C14.7767 9.28435 14.9825 9.90647 14.9825 10.5429C14.9825 11.3963 14.6129 12.2147 13.955 12.8181C13.2972 13.4216 12.4049 13.7606 11.4745 13.7606Z" fill="#27272A"/>
<path d="M17.0939 6.54899C17.7914 6.54899 18.3568 6.03037 18.3568 5.39061C18.3568 4.75086 17.7914 4.23224 17.0939 4.23224C16.3965 4.23224 15.8311 4.75086 15.8311 5.39061C15.8311 6.03037 16.3965 6.54899 17.0939 6.54899Z" fill="#27272A"/>
</svg>